<svg xmlns="http://www.w3.org/2000/svg" width="177" height="79.976" viewBox="231.5 199.5 177 79.976"><path fill="#E40415" d="M247.846 233.087c-4.583 0-7.276 2.52-8.707 4.067v-16.73h-7.62v41.243h7.62v-18.732c.572-.744 2.805-3.492 5.783-3.492 2.693 0 3.667 1.433 3.667 4.238v17.987h7.618v-19.53c0-5.154-2.235-9.05-8.362-9.05M313.615 226.208c2.062 0 3.38.573 3.84.8l1.775-5.726c-.687-.4-2.693-1.317-6.76-1.317-7.103 0-11 4.467-11 11.17V234h-4.18v5.67h4.18v22.226h7.62V239.67h6.646V234h-6.646v-2.293c0-3.606 1.432-5.497 4.524-5.497"/><path fill="#5B8AB4" d="M269.45 234.713c0 1.832.677 3.088 2.557 5.064 2.8 2.895 10.228 9.214 13.654 11.725 2.17-2.85 3.28-7.222 3.608-13.012l3.97 2.59c-1.092 6.01-1.308 9.02-4.49 12.686 2.506 1.882 6.512 4.438 9.165 5.888l-5.79 3.28c-1.927-1.255-5.35-3.653-7.376-5.293-3.956 3.28-8.01 4.474-12.98 4.474-7.668 0-12.83-3.91-12.83-9.263 0-4.437 3.185-7.86 8.442-9.888-2.655-2.653-3.91-5.016-3.91-7.91 0-4.872 4.728-8.636 11.675-8.636 2.848 0 5.403.386 7.285 1.158l-1.45 4.147c-1.445-.673-3.567-1.01-5.353-1.01-4.337 0-6.173 1.64-6.173 4.004m12.062 20.454c-3.088-2.46-9.07-7.38-11.675-9.743-3.568 1.734-5.062 3.666-5.062 6.464 0 3.52 3.568 5.978 7.718 5.978 3.664 0 6.17-.434 9.017-2.7M289.245 223.736s5.01-14.05 18.093-13.878c0 0 5.55.19 9.305 3.222 0 0-16.418-7.872-22.933 13.568l-4.465-2.912z"/><path fill="#5B8AB4" d="M377.26 234.32c-10.298 12.72-22.216 12.453-31.105 9.532-7.335-2.412-13.578-8.12-19.503-21.07-6.38-13.955-17.844-14.174-17.844-14.174 2.155.034 4.485.56 7.055 1.59 15.818 6.334 14.796 18.418 24.912 26.366 8.338 6.552 20.433 8.37 27.505 4.492 2.003-1.12 5.564-3.166 8.976-6.736"/><path fill="#5B8AB4" d="M384.732 215.493c-2.688 1.477-5.894 7.504-5.894 7.504-2.542 4.655-4.425 9.08-6.188 12.04-.94 1.583-2.188 3.033-3.663 3.88 0 0 7.55-3.44 10.922-10.508 2.22-4.652 2.524-8.913 4.82-12.918"/><path fill="#5B8AB4" d="M407.997 199.655c-16.074.633-23.5 10.432-29.02 20.87 0 0 7.538-14.405 26.318-13.72l2.702-7.15zM231.5 267.715h1.437v4.935h.033c.23-.408.588-.784 1.03-1.012.424-.263.932-.408 1.47-.408 1.063 0 2.763.653 2.763 3.382v4.707h-1.437v-4.543c0-1.292-.475-2.354-1.83-2.354-.932 0-1.65.653-1.93 1.44-.082.194-.1.405-.1.685v4.772H231.5v-11.605zM246.027 277.423c0 .686.033 1.356.115 1.896h-1.292l-.13-.998h-.05c-.423.62-1.29 1.177-2.418 1.177-1.6 0-2.42-1.128-2.42-2.272 0-1.912 1.7-2.96 4.758-2.94v-.164c0-.653-.18-1.847-1.797-1.83-.753 0-1.52.213-2.076.59l-.328-.967c.652-.408 1.616-.687 2.613-.687 2.436 0 3.024 1.65 3.024 3.236v2.957zm-1.404-2.14c-1.57-.034-3.35.244-3.35 1.78 0 .947.62 1.373 1.34 1.373 1.046 0 1.715-.654 1.943-1.324.05-.147.066-.31.066-.456v-1.374zM247.89 273.55c0-.832-.033-1.485-.065-2.14h1.257l.067 1.274h.047c.44-.75 1.177-1.454 2.5-1.454 1.063 0 1.88.653 2.222 1.585h.034c.244-.458.57-.784.897-1.03.476-.36.982-.555 1.733-.555 1.063 0 2.616.686 2.616 3.43v4.66h-1.407v-4.48c0-1.535-.57-2.434-1.715-2.434-.834 0-1.455.604-1.715 1.29-.067.212-.115.475-.115.72v4.902h-1.405v-4.738c0-1.274-.556-2.174-1.652-2.174-.88 0-1.55.72-1.78 1.438-.082.213-.115.458-.115.703v4.772h-1.405v-5.77zM261.078 273.55c0-.832-.033-1.485-.065-2.14h1.26l.064 1.274h.048c.44-.75 1.176-1.454 2.5-1.454 1.063 0 1.88.653 2.222 1.585h.034c.245-.458.572-.784.898-1.03.475-.36.98-.555 1.732-.555 1.063 0 2.616.686 2.616 3.43v4.66h-1.406v-4.48c0-1.535-.57-2.434-1.715-2.434-.834 0-1.455.604-1.715 1.29-.067.212-.115.475-.115.72v4.902h-1.405v-4.738c0-1.274-.556-2.174-1.652-2.174-.882 0-1.552.72-1.78 1.438-.083.213-.115.458-.115.703v4.772h-1.405v-5.77zM275.082 275.61c.033 1.942 1.26 2.744 2.696 2.744 1.03 0 1.667-.18 2.19-.392l.262 1.013c-.506.228-1.39.508-2.647.508-2.42 0-3.89-1.62-3.89-3.988 0-2.403 1.422-4.28 3.726-4.28 2.582 0 3.25 2.27 3.25 3.725 0 .293-.015.523-.047.687l-5.54-.018zm4.2-1.03c.017-.898-.375-2.337-1.976-2.337-1.47 0-2.092 1.34-2.207 2.336h4.182zM282.354 273.876c0-.93-.015-1.732-.065-2.467h1.258l.065 1.552h.048c.36-1.063 1.243-1.732 2.207-1.732.147 0 .262.016.393.05v1.34c-.163-.018-.31-.033-.506-.033-1.014 0-1.733.767-1.928 1.83-.032.21-.05.44-.05.687v4.216h-1.437l.017-5.44-.003-.004zM287.37 277.864c.44.26 1.193.557 1.914.557 1.03 0 1.52-.505 1.52-1.176 0-.687-.41-1.062-1.455-1.455-1.44-.523-2.11-1.292-2.11-2.24 0-1.273 1.045-2.32 2.73-2.32.8 0 1.502.213 1.928.49l-.343 1.03c-.31-.18-.882-.458-1.618-.458-.85 0-1.307.49-1.307 1.078 0 .67.456.964 1.485 1.357 1.356.506 2.077 1.192 2.077 2.386 0 1.404-1.096 2.386-2.942 2.386-.866 0-1.667-.23-2.223-.557l.344-1.08zM293.92 273.55c0-.832-.03-1.485-.064-2.14h1.26l.064 1.274h.048c.44-.75 1.177-1.454 2.5-1.454 1.063 0 1.88.653 2.224 1.585h.033c.245-.458.57-.784.898-1.03.474-.36.98-.555 1.732-.555 1.062 0 2.614.686 2.614 3.43v4.66h-1.408v-4.48c0-1.535-.57-2.434-1.715-2.434-.832 0-1.455.604-1.715 1.29-.065.212-.113.475-.113.72v4.902h-1.408v-4.738c0-1.274-.556-2.174-1.65-2.174-.883 0-1.554.72-1.782 1.438-.083.213-.115.458-.115.703v4.772h-1.405v-5.77zM307.797 269.955c-.54 0-.9-.424-.9-.932 0-.506.377-.916.933-.916s.914.41.914.916c0 .508-.358.932-.93.932h-.018zm-.688 1.455h1.436v7.91h-1.437v-7.912.002zM312.553 269.513v1.896h2.06v1.095h-2.06v4.265c0 .98.278 1.536 1.08 1.536.39 0 .62-.032.83-.1l.066 1.097c-.277.098-.72.196-1.274.196-.67 0-1.21-.23-1.554-.605-.39-.442-.554-1.145-.554-2.075v-4.314h-1.226v-1.096h1.226v-1.455l1.41-.44-.005-.002zM316.114 267.715h1.437v4.935h.034c.23-.408.59-.784 1.03-1.012.424-.263.93-.408 1.47-.408 1.063 0 2.763.653 2.763 3.382v4.707h-1.438v-4.543c0-1.292-.475-2.354-1.832-2.354-.93 0-1.65.653-1.928 1.44-.082.194-.1.405-.1.685v4.772h-1.437v-11.605zM335.035 279.317c-.31-.31-.604-.62-1.03-1.062-.945.864-1.992 1.242-3.218 1.242-2.142 0-3.383-1.44-3.383-3.09 0-1.503.9-2.517 2.157-3.22v-.05c-.555-.72-.93-1.518-.93-2.304 0-1.34.98-2.712 2.81-2.712 1.372 0 2.436.9 2.436 2.337 0 1.162-.67 2.076-2.42 2.942v.05c.933 1.094 1.98 2.287 2.68 3.07.507-.768.852-1.83 1.064-3.22h1.307c-.293 1.733-.77 3.105-1.585 4.07.59.62 1.16 1.24 1.813 1.944h-1.7v.003zm-3.985-.895c.946 0 1.732-.426 2.254-.997-.654-.703-1.88-2.06-3.088-3.465-.604.376-1.422 1.08-1.422 2.238 0 1.26.914 2.224 2.238 2.224h.018zm.293-9.32c-.897 0-1.373.752-1.373 1.604 0 .783.376 1.39.834 1.978 1.13-.64 1.83-1.225 1.83-2.158 0-.67-.375-1.422-1.274-1.422h-.017zM341.67 279.317v-6.814h-1.093v-1.095h1.094v-.377c0-1.11.262-2.123.933-2.76.54-.522 1.26-.735 1.913-.735.522 0 .948.114 1.226.228l-.18 1.11c-.23-.097-.506-.18-.93-.18-1.213 0-1.54 1.08-1.54 2.29v.425h1.914v1.094h-1.896v6.815h-1.44zM352.817 277.162c0 .818.018 1.537.065 2.158h-1.274l-.08-1.292h-.033c-.36.638-1.21 1.472-2.614 1.472-1.242 0-2.73-.703-2.73-3.465v-4.625h1.44v4.362c0 1.505.473 2.533 1.765 2.533.964 0 1.633-.67 1.894-1.324.08-.194.13-.455.13-.733v-4.837h1.44v5.752h-.003zM354.76 279.317h1.44v-11.603h-1.44v11.603zM358.145 267.715h1.438v4.935h.032c.23-.408.59-.784 1.03-1.012.425-.263.93-.408 1.47-.408 1.063 0 2.763.653 2.763 3.382v4.707h-1.438v-4.545c0-1.292-.474-2.354-1.83-2.354-.932 0-1.652.654-1.928 1.44-.083.195-.1.406-.1.686v4.772h-1.438v-11.602zM372.345 277.423c0 .686.032 1.356.113 1.896h-1.29l-.13-.998h-.05c-.424.62-1.292 1.177-2.42 1.177-1.6 0-2.418-1.128-2.418-2.272 0-1.912 1.7-2.96 4.757-2.94v-.164c0-.653-.18-1.847-1.798-1.83-.754 0-1.52.213-2.078.59l-.326-.967c.654-.408 1.618-.687 2.614-.687 2.436 0 3.024 1.65 3.024 3.236v2.957zm-1.406-2.14c-1.57-.034-3.352.244-3.352 1.78 0 .947.62 1.373 1.34 1.373 1.045 0 1.715-.654 1.945-1.324.048-.147.065-.31.065-.456v-1.374zM374.207 273.55c0-.832-.032-1.485-.064-2.14h1.26l.064 1.274h.05c.438-.75 1.177-1.454 2.5-1.454 1.06 0 1.88.653 2.222 1.585h.032c.245-.458.572-.784.898-1.03.474-.36.98-.555 1.73-.555 1.063 0 2.616.686 2.616 3.43v4.66h-1.405v-4.48c0-1.535-.57-2.434-1.716-2.434-.834 0-1.455.604-1.715 1.29-.066.212-.116.475-.116.72v4.902h-1.405v-4.74c0-1.273-.557-2.172-1.65-2.172-.884 0-1.555.72-1.78 1.437-.083.213-.117.458-.117.703v4.772h-1.4v-5.768h-.006z"/></svg>